Coordinates
version=1
nRows=4
nColumns=63
inDegrees=yes

Units are S.I. units (second, meters, Newtons, ...)
If the header above contains a line with 'inDegrees', this indicates whether rotational values are in degrees (yes) or radians (no).

endheader
time	pelvis_tilt	pelvis_list	pelvis_rotation	pelvis_tx	pelvis_ty	pelvis_tz	hip_flexion_r	hip_adduction_r	hip_rotation_r	knee_angle_r	knee_angle_r_beta	ankle_angle_r	subtalar_angle_r	mtp_angle_r	hip_flexion_l	hip_adduction_l	hip_rotation_l	knee_angle_l	knee_angle_l_beta	ankle_angle_l	subtalar_angle_l	mtp_angle_l	L5_S1_Flex_Ext	L5_S1_Lat_Bending	L5_S1_axial_rotation	L4_L5_Flex_Ext	L4_L5_Lat_Bending	L4_L5_axial_rotation	L3_L4_Flex_Ext	L3_L4_Lat_Bending	L3_L4_axial_rotation	L2_L3_Flex_Ext	L2_L3_Lat_Bending	L2_L3_axial_rotation	L1_L2_Flex_Ext	L1_L2_Lat_Bending	L1_L2_axial_rotation	L1_T12_Flex_Ext	L1_T12_Lat_Bending	L1_T12_axial_rotation	Abs_r3	Abs_r2	Abs_r1	Abs_t1	Abs_t2	neck_flexion	neck_bending	neck_rotation	arm_flex_r	arm_add_r	arm_rot_r	elbow_flex_r	pro_sup_r	wrist_flex_r	wrist_dev_r	arm_flex_l	arm_add_l	arm_rot_l	elbow_flex_l	pro_sup_l	wrist_flex_l	wrist_dev_l
      2.67307692	     -1.27372763	     -1.38256651	     95.17086915	      0.21719642	      0.97277780	      0.53457934	     15.53558651	     -0.78512328	      2.65383285	     31.10535542	      0.54289087	     30.65475145	    -12.94580576	      0.00000000	     19.57278107	     -0.35499879	     -5.69386720	     38.13692359	      0.66561488	     31.19856414	     -5.32979319	      0.00000000	     -0.13465478	     -0.20822266	      1.00281314	     -0.25006740	     -0.27693613	      1.06548896	     -0.22122435	     -0.50627257	      1.06548896	     -0.15389695	     -0.50627257	      0.87746150	     -0.12504043	     -0.42460764	      0.81478568	     -0.07694174	     -0.32253690	      0.75210986	     -0.96182566	     -2.35545634	      5.57734586	      0.00000000	      0.00000000	     11.02016438	      3.75391062	     -4.47753785	     43.92760167	    -15.95433615	    -11.44045993	    111.93652854	     87.80104809	    -17.41457608	     -6.64345919	     60.55850026	      9.16902579	     24.78600374	     96.12248590	     89.45189983	    -14.42215600	    -22.54596736
      2.69230769	     -0.99844914	     -1.31708640	     95.12291729	      0.21663445	      0.97517834	      0.53511148	     15.38816272	     -0.52235511	      2.65389658	     30.54796414	      0.53316255	     30.22917867	    -12.60766378	      0.00000000	     19.33860604	     -0.57684822	     -5.65533374	     37.70520836	      0.65808003	     30.71655358	     -5.47799051	      0.00000000	     -0.13975566	     -0.21972814	      1.04041077	     -0.25954024	     -0.29223843	      1.10543644	     -0.22960458	     -0.53424700	      1.10543644	     -0.15972675	     -0.53424700	      0.91035942	     -0.12977711	     -0.44806962	      0.84533375	     -0.07985639	     -0.34035889	      0.78030807	     -0.99826073	     -2.48560867	      5.78645256	      0.00000000	      0.00000000	     10.04325784	      4.39039626	     -3.67127784	     43.90960720	    -17.01258032	    -15.63455900	    113.72658212	     88.32101184	    -18.34662158	     -6.85795610	     60.32935757	      9.97258729	     23.35624059	     96.62293399	     89.40135928	    -14.88641494	    -21.57897647
      2.71153846	     -0.97084774	     -1.55432911	     94.68980586	      0.21673097	      0.97775185	      0.53465850	     15.43342337	     -0.49292553	      2.88523693	     29.81190998	      0.52031599	     30.06083382	    -11.66282847	      0.00000000	     19.03937481	     -0.54435549	     -5.82704592	     36.77290165	      0.64180821	     29.95747815	     -5.89737236	      0.00000000	     -0.10505034	     -0.28988016	      1.32124879	     -0.19508900	     -0.38554062	      1.40382684	     -0.17258721	     -0.70481463	      1.40382684	     -0.12006204	     -0.70481463	      1.15609269	     -0.09754975	     -0.59112363	      1.07351465	     -0.06002577	     -0.44902438	      0.99093660	     -0.75036411	     -3.27918240	      7.34838942	      0.00000000	      0.00000000	      9.93516730	      5.92566057	     -4.95849996	     42.07173899	    -19.46012981	    -21.07305209	    117.05649613	     88.68335919	    -19.70224970	     -4.97966705	     59.52929950	     11.15693310	     22.86618323	     97.52298676	     89.32285912	    -15.89870398	    -18.46176543
      2.73076923	     -0.99951844	     -1.76570556	     94.45640899	      0.21642286	      0.98039861	      0.53387769	     15.39437425	     -0.55211663	      3.05829289	     29.06820041	      0.50733580	     29.88848762	    -10.99145000	      0.00000000	     18.59753461	     -0.45035135	     -6.06988833	     35.69783972	      0.62304484	     29.19787341	     -5.78622768	      0.00000000	     -0.07791889	     -0.35425342	      1.56156835	     -0.14470316	     -0.47115705	      1.65916637	     -0.12801294	     -0.86133176	      1.65916637	     -0.08905350	     -0.86133176	      1.36637230	     -0.07235548	     -0.72239357	      1.26877428	     -0.04452285	     -0.54873854	      1.17117626	     -0.55656682	     -4.00738551	      8.68497467	      0.00000000	      0.00000000	     10.85733109	      5.86668530	     -5.88232991	     39.04417289	    -21.83554693	    -26.94577042	    120.77762699	     88.63547232	    -20.70827603	     -3.80997929	     57.96473363	     11.79664810	     22.68147305	     99.38284976	     89.20952352	    -17.40036329	    -15.28426413
